<?xml version="1.0" encoding="UTF-8" standalone="no"?>
<!DOCTYPE svg PUBLIC "-//W3C//DTD SVG 1.1//EN" "http://www.w3.org/Graphics/SVG/1.1/DTD/svg11.dtd">
<svg version="1.1" xmlns="http://www.w3.org/2000/svg" xmlns:xlink="http://www.w3.org/1999/xlink" preserveAspectRatio="xMidYMid meet" viewBox="0 0 640 640" width="640" height="640"><defs><path d="M132.95 165.86L132.95 291.14L132.95 451.55L10 451.55C10 314.76 10 229.27 10 195.07C10 178.93 23.08 165.86 39.21 165.86C51.71 165.86 82.95 165.86 132.95 165.86Z" id="h1XQDL8LLM"></path><path d="M481.92 116.98C495.68 116.98 506.84 128.14 506.84 141.9C506.84 183.19 506.84 286.4 506.84 451.54L133.16 451.54C133.16 286.67 133.16 183.62 133.16 142.4C133.16 128.36 144.54 116.98 158.58 116.98C228.24 116.98 412.17 116.98 481.92 116.98Z" id="a1fZDA7S2M"></path><path d="M52.14 194.2C52.14 200.94 46.67 206.41 39.93 206.41C33.19 206.41 27.72 200.94 27.72 194.2C27.72 187.46 33.19 181.99 39.93 181.99C46.67 181.99 52.14 187.46 52.14 194.2Z" id="aCXLtnzYv"></path><path d="M82.61 194.2C82.61 200.94 77.14 206.41 70.4 206.41C63.66 206.41 58.19 200.94 58.19 194.2C58.19 187.46 63.66 181.99 70.4 181.99C77.14 181.99 82.61 187.46 82.61 194.2Z" id="h2IYtdiivs"></path><path d="M115.06 194.2C115.06 200.94 109.59 206.41 102.85 206.41C96.11 206.41 90.64 200.94 90.64 194.2C90.64 187.46 96.11 181.99 102.85 181.99C109.59 181.99 115.06 187.46 115.06 194.2Z" id="c157DVwNrn"></path><path d="M181.87 150C181.87 158.37 175.08 165.16 166.71 165.16C158.34 165.16 151.55 158.37 151.55 150C151.55 141.63 158.34 134.84 166.71 134.84C175.08 134.84 181.87 141.63 181.87 150Z" id="coJLGZXuK"></path><path d="M219.71 150C219.71 158.37 212.92 165.16 204.55 165.16C196.18 165.16 189.39 158.37 189.39 150C189.39 141.63 196.18 134.84 204.55 134.84C212.92 134.84 219.71 141.63 219.71 150Z" id="f1QHzywBp6"></path><path d="M260 150C260 158.37 253.21 165.16 244.84 165.16C236.47 165.16 229.67 158.37 229.67 150C229.67 141.63 236.47 134.84 244.84 134.84C253.21 134.84 260 141.63 260 150Z" id="c5wy7U6VVU"></path><path d="M507.05 166.83L507.05 291.66L507.05 451.49L630 451.49C630 315.25 630 230.1 630 196.04C630 179.91 616.92 166.83 600.79 166.83C588.29 166.83 557.05 166.83 507.05 166.83Z" id="e3XA4PqpGh"></path></defs><g><g><g><use xlink:href="#h1XQDL8LLM" opacity="1" fill="#ffffff" fill-opacity="0"></use><g><use xlink:href="#h1XQDL8LLM" opacity="1" fill-opacity="0" stroke="#ffffff" stroke-width="20" stroke-opacity="1"></use></g></g><g><use xlink:href="#a1fZDA7S2M" opacity="1" fill="#892a2a" fill-opacity="0"></use><g><use xlink:href="#a1fZDA7S2M" opacity="1" fill-opacity="0" stroke="#ffffff" stroke-width="20" stroke-opacity="1"></use></g></g><g><g><use xlink:href="#aCXLtnzYv" opacity="1" fill="#ffffff" fill-opacity="1"></use></g><g><use xlink:href="#h2IYtdiivs" opacity="1" fill="#ffffff" fill-opacity="1"></use></g><g><use xlink:href="#c157DVwNrn" opacity="1" fill="#ffffff" fill-opacity="1"></use></g></g><g><g><use xlink:href="#coJLGZXuK" opacity="1" fill="#ffffff" fill-opacity="1"></use></g><g><use xlink:href="#f1QHzywBp6" opacity="1" fill="#ffffff" fill-opacity="1"></use></g><g><use xlink:href="#c5wy7U6VVU" opacity="1" fill="#ffffff" fill-opacity="1"></use></g></g><g><use xlink:href="#e3XA4PqpGh" opacity="1" fill="#882929" fill-opacity="0"></use><g><use xlink:href="#e3XA4PqpGh" opacity="1" fill-opacity="0" stroke="#ffffff" stroke-width="20" stroke-opacity="1"></use></g></g></g></g></svg>